<svg id="Layer_1" enable-background="new 0 0 512.004 512.004" height="512" viewBox="0 0 512.004 512.004" width="512" xmlns="http://www.w3.org/2000/svg"><g><path d="m83.912 463.912c0 8.284 6.716 15 15 15h46.246c8.284 0 15-6.716 15-15s-6.716-15-15-15h-31.246v-38.716c-10.315-3.352-20.341-7.506-30-12.438z"/><path d="m195.862 463.912c0 8.284 6.716 15 15 15h46.246c8.284 0 15-6.716 15-15s-6.716-15-15-15h-31.246v-33.853c-9.805 2.252-19.824 3.802-30 4.624z"/><path d="m511.307 351.544c-.528-1.676-5.535-16.84-18.564-32.908-6.662-8.216-14.224-15.169-22.549-20.788-3.304 9.536-7.947 18.589-13.843 26.942 19.086 14.309 25.95 34.57 26.343 35.769 2.017 6.402 7.929 10.497 14.303 10.497 1.492 0 3.012-.225 4.512-.697 7.9-2.49 12.287-10.914 9.798-18.815z"/><path d="m446.084 258.291c-.888-19.599-9.049-38.126-22.979-52.167-13.932-14.042-32.393-22.349-51.984-23.39-.295-.016-.588-.029-.888-.042-8.839-.373-16.234-6.372-18.4-14.927-9.603-37.928-31.917-72.208-62.833-96.523-31.743-24.966-69.882-38.151-110.337-38.151-.193 0-.392 0-.585.001-97.487.306-177.37 79.857-178.073 177.331-.347 47.979 18.072 93.146 51.862 127.181 33.794 34.039 78.819 52.785 126.782 52.785 48.783 0 94.349-19.302 128.304-54.351 6.083-6.278 15.434-7.753 23.27-3.669 11.222 5.848 23.879 8.939 36.602 8.939 21.876 0 42.249-8.712 57.367-24.53 15.11-15.812 22.885-36.582 21.892-58.487zm-75.524 10.569c-8.409 0-14.636-6.873-15-15-.363-8.101 7.154-15 15-15 8.409 0 14.636 6.873 15 15 .363 8.101-7.154 15-15 15z"/></g></svg>