<svg height="512pt" viewBox="0 -88 512.29849 512" width="512pt" xmlns="http://www.w3.org/2000/svg"><path d="m289.535156 315.542969c-22.058594 5.964843-44.820312 8.949219-67.671875 8.875-113.066406 0-204.796875-70.65625-204.796875-157.867188 0-87.210937 91.730469-157.867187 204.796875-157.867187 34.175781-.199219 68.027344 6.566406 99.5 19.882812zm0 0" fill="#795548"/><path d="m458.578125 281.964844c-31.457031 31.601562-75.175781 47.84375-119.636719 44.457031-43.261718-2.902344-88.488281-23.296875-127.828125-62.632813l-.683593-.683593 217.601562-217.601563 11.691406-11.6875.679688.679688c79.957031 79.957031 81.410156 184.152344 18.175781 247.46875zm0 0" fill="#4e342e"/><path d="m435.882812 281.964844c-25.859374 26.078125-60.308593 41.878906-96.941406 44.457031-43.261718-2.902344-88.488281-23.296875-127.828125-62.632813l-.683593-.683593 217.601562-217.601563c69.632812 78.253906 68.179688 176.042969 7.851562 236.460938zm0 0" fill="#795548"/><path d="m397.480469 220.867188c-45.3125 45.308593-101.035157 67.921874-143.617188 62.546874-16.203125-1.613281-31.386719-8.648437-43.089843-19.96875-39.765626-39.765624-20.738282-123.390624 42.578124-186.707031 36.695313-36.695312 80.214844-58.453125 118.015626-62.550781 27.480468-3.070312 51.96875 3.242188 68.695312 19.96875 39.765625 39.765625 20.734375 123.390625-42.582031 186.710938zm0 0" fill="#558b30"/><path d="m371.796875 220.867188c-36.695313 36.691406-80.128906 58.453124-117.933594 62.546874-16.203125-1.613281-31.386719-8.648437-43.089843-19.96875-39.765626-39.765624-20.738282-123.390624 42.578124-186.707031 36.695313-36.695312 80.214844-58.453125 118.015626-62.550781 16.207031 1.613281 31.390624 8.648438 43.09375 19.96875 39.765624 39.765625 20.652343 123.390625-42.664063 186.710938zm0 0" fill="#8bc34a"/><path d="m365.378906 122.375c-.632812-1.691406-1.921875-3.054688-3.578125-3.777344s-3.53125-.742187-5.203125-.054687c-6.785156 2.535156-14.425781.109375-18.5-5.878907-1.707031-2.960937-5.496094-3.78125-9.914062-2.125-4.648438 1.867188-8.460938 5.347657-10.746094 9.804688-4.53125 8.789062-11.691406 15.945312-20.480469 20.480469-4.472656 2.285156-7.96875 6.113281-9.835937 10.777343-1.65625 4.417969-.855469 8.226563 2.113281 9.914063 5.996094 4.070313 8.429687 11.714844 5.890625 18.5-.6875 1.671875-.664062 3.550781.054688 5.207031.722656 1.65625 2.085937 2.949219 3.777343 3.582032 4.394531.800781 8.902344-.585938 12.089844-3.71875 6.519531-6.042969 15.160156-9.269532 24.046875-8.976563 1.800781.167969 3.613281-.09375 5.289062-.761719 2.613282-1.046875 4.96875-2.632812 6.921876-4.660156 3.480468-3.089844 5.4375-7.550781 5.351562-12.210938-.292969-8.882812 2.933594-17.523437 8.976562-24.046874 3.144532-3.164063 4.542969-7.667969 3.746094-12.054688zm-27.066406 39.320312c-10.3125.6875-20.199219 4.371094-28.441406 10.605469 1.5625-8.003906-1.0625-16.25-6.964844-21.878906 9.789062-6.074219 18.046875-14.320313 24.132812-24.105469 5.628907 5.90625 13.882813 8.53125 21.886719 6.964844-6.234375 8.230469-9.925781 18.109375-10.613281 28.414062zm0 0"/><path d="m277.691406 113.140625c2.140625 2.21875 5.3125 3.109375 8.296875 2.328125s5.3125-3.113281 6.09375-6.09375c.78125-2.984375-.109375-6.15625-2.324219-8.300781l-11.375-11.375c-2.144531-2.21875-5.316406-3.109375-8.300781-2.328125s-5.3125 3.113281-6.09375 6.097656c-.78125 2.980469.109375 6.15625 2.328125 8.296875zm0 0"/><path d="m373.160156 184.480469c-2.140625-2.21875-5.3125-3.109375-8.296875-2.328125s-5.3125 3.109375-6.09375 6.09375.105469 6.15625 2.324219 8.300781l11.375 11.375c3.347656 3.230469 8.671875 3.1875 11.964844-.105469 3.289062-3.292968 3.335937-8.613281.101562-11.960937zm0 0"/><path d="m265.085938 209.148438c-3.332032-3.332032-8.734376-3.332032-12.066407 0l-18.105469 18.109374c-2.21875 2.140626-3.109374 5.3125-2.328124 8.296876.78125 2.984374 3.109374 5.3125 6.09375 6.09375 2.984374.78125 6.15625-.105469 8.300781-2.324219l18.105469-18.109375c3.332031-3.332032 3.332031-8.734375 0-12.066406zm0 0"/><path d="m385.765625 88.472656c3.332031 3.328125 8.734375 3.328125 12.066406 0l18.105469-18.109375c3.234375-3.347656 3.1875-8.671875-.101562-11.960937-3.292969-3.292969-8.613282-3.339844-11.964844-.105469l-18.105469 18.109375c-3.332031 3.332031-3.332031 8.730469 0 12.066406zm0 0"/><path d="m302.640625 87.625c.894531 3.867188 4.335937 6.609375 8.304687 6.613281.648438 0 1.292969-.070312 1.929688-.210937 2.207031-.507813 4.121094-1.875 5.320312-3.792969 1.199219-1.921875 1.589844-4.242187 1.078126-6.449219l-3.976563-17.203125c-1.167969-4.453125-5.660156-7.175781-10.148437-6.152343-4.492188 1.023437-7.359376 5.421874-6.484376 9.941406zm0 0"/><path d="m348.210938 209.992188c-1.058594-4.59375-5.640626-7.460938-10.238282-6.402344-4.59375 1.058594-7.460937 5.640625-6.402344 10.234375l3.984376 17.253906c.894531 3.867187 4.335937 6.609375 8.304687 6.613281.648437.003906 1.292969-.070312 1.925781-.210937 2.207032-.507813 4.125-1.875 5.324219-3.792969 1.199219-1.921875 1.585937-4.242188 1.078125-6.449219zm0 0"/><path d="m255.726562 190.84375c-1.171874-1.9375-3.0625-3.328125-5.261718-3.871094-2.195313-.542968-4.519532-.191406-6.457032.980469l-21.066406 12.722656c-4.035156 2.4375-5.332031 7.683594-2.894531 11.714844 2.4375 4.035156 7.683594 5.332031 11.71875 2.894531l21.066406-12.722656c1.9375-1.171875 3.332031-3.0625 3.875-5.261719.539063-2.195312.1875-4.519531-.980469-6.457031zm0 0"/><path d="m419.085938 82.335938-21.066407 12.722656c-2.609375 1.574218-4.179687 4.425781-4.121093 7.472656.058593 3.046875 1.742187 5.832031 4.410156 7.304688 2.671875 1.472656 5.925781 1.40625 8.535156-.167969l21.066406-12.722657c2.609375-1.578124 4.179688-4.425781 4.121094-7.472656-.058594-3.050781-1.742188-5.832031-4.410156-7.304687-2.671875-1.472657-5.925782-1.410157-8.535156.167969zm0 0"/><path d="m339.761719 81.089844c4.609375.96875 9.132812-1.984375 10.101562-6.597656l4.421875-20.792969c.898438-4.574219-2.039062-9.019531-6.597656-9.992188-4.558594-.96875-9.050781 1.898438-10.09375 6.441407l-4.417969 20.792968c-.480469 2.222656-.054687 4.539063 1.183594 6.445313 1.234375 1.902343 3.179687 3.234375 5.402344 3.703125zm0 0"/><path d="m311.089844 216.546875c-4.609375-.980469-9.140625 1.960937-10.121094 6.570313l-4.429688 20.804687c-.976562 4.609375 1.964844 9.140625 6.570313 10.121094 2.214844.472656 4.527344.046875 6.429687-1.1875 1.898438-1.230469 3.230469-3.167969 3.699219-5.382813l4.421875-20.804687c.980469-4.609375-1.960937-9.140625-6.570312-10.121094zm0 0"/><path d="m227.761719 181.21875c.683593 0 1.367187-.085938 2.03125-.246094l20.957031-5.121094c4.582031-1.113281 7.390625-5.730468 6.277344-10.3125-1.117188-4.582031-5.730469-7.390624-10.3125-6.277343l-20.957032 5.121093c-4.203124 1.015626-6.980468 5.011719-6.46875 9.304688.511719 4.292969 4.148438 7.523438 8.472657 7.523438zm0 0"/><path d="m421.050781 116.648438-20.949219 5.121093c-4.203124 1.015625-6.980468 5.011719-6.46875 9.308594.515626 4.292969 4.15625 7.523437 8.480469 7.515625.683594 0 1.363281-.078125 2.023438-.238281l20.957031-5.117188c2.976562-.714843 5.339844-2.960937 6.203125-5.894531.859375-2.933594.085937-6.105469-2.027344-8.3125-2.117187-2.207031-5.253906-3.113281-8.21875-2.375zm0 0"/><path d="m365.421875 78.683594c1.960937 1.125 4.292969 1.425781 6.476563.832031 2.183593-.589844 4.046874-2.027344 5.171874-3.988281l12.046876-21.105469c1.59375-2.648437 1.628906-5.953125.09375-8.632813-1.539063-2.683593-4.402344-4.328124-7.496094-4.292968-3.089844.03125-5.921875 1.730468-7.402344 4.445312l-12.082031 21.101563c-1.121094 1.96875-1.414063 4.296875-.816407 6.480469.597657 2.183593 2.039063 4.039062 4.007813 5.160156zm0 0"/><path d="m285.429688 218.9375c-1.964844-1.125-4.292969-1.425781-6.476563-.835938-2.1875.59375-4.046875 2.03125-5.171875 3.992188l-12.082031 21.128906c-1.125 1.964844-1.425781 4.296875-.832031 6.480469s2.03125 4.042969 3.996093 5.167969c4.089844 2.335937 9.300781.921875 11.640625-3.167969l12.082032-21.101563c1.132812-1.964843 1.4375-4.296874.84375-6.488281-.59375-2.1875-2.03125-4.050781-4-5.175781zm0 0"/><path d="m241.535156 142.1875 17.605469 3.25c.511719.09375 1.03125.140625 1.550781.136719 4.402344-.015625 8.070313-3.375 8.46875-7.761719.398438-4.382812-2.605468-8.351562-6.933594-9.160156l-17.601562-3.242188c-3.042969-.65625-6.199219.394532-8.242188 2.742188-2.042968 2.347656-2.644531 5.621094-1.574218 8.539062 1.074218 2.921875 3.648437 5.027344 6.726562 5.496094zm0 0"/><path d="m409.316406 155.433594-17.636718-3.253906c-3-.550782-6.066407.539062-8.042969 2.859374-1.976563 2.320313-2.566407 5.519532-1.542969 8.394532 1.019531 2.871094 3.496094 4.980468 6.496094 5.53125l17.605468 3.242187c.511719.101563 1.03125.148438 1.550782.144531 4.402344-.015624 8.070312-3.375 8.46875-7.761718.398437-4.382813-2.605469-8.351563-6.933594-9.15625zm0 0"/><path d="m277.332031 156.011719c-2.441406-2.441407-6.109375-3.171875-9.300781-1.851563-3.1875 1.320313-5.269531 4.433594-5.269531 7.886719 0 3.449219 2.082031 6.5625 5.269531 7.882813 3.191406 1.320312 6.859375.589843 9.300781-1.851563 3.332031-3.332031 3.332031-8.734375 0-12.066406zm0 0"/><path d="m284.609375 201.691406c2.441406-2.441406 3.171875-6.109375 1.851563-9.300781-1.320313-3.1875-4.433594-5.269531-7.882813-5.269531-3.453125 0-6.5625 2.082031-7.882813 5.269531-1.324218 3.191406-.59375 6.859375 1.847657 9.300781 3.332031 3.332032 8.734375 3.332032 12.066406 0zm0 0"/><path d="m322.585938 202.5c0 4.714844-3.824219 8.535156-8.535157 8.535156-4.714843 0-8.535156-3.820312-8.535156-8.535156 0-4.710938 3.820313-8.53125 8.535156-8.53125 4.710938 0 8.535157 3.820312 8.535157 8.53125zm0 0"/><path d="m385.578125 141.609375c2.441406-2.441406 3.171875-6.113281 1.851563-9.300781-1.324219-3.191406-4.433594-5.269532-7.886719-5.269532-3.449219 0-6.5625 2.078126-7.882813 5.269532-1.320312 3.1875-.589844 6.859375 1.851563 9.300781 3.332031 3.328125 8.734375 3.328125 12.066406 0zm0 0"/><path d="m378.308594 95.929688c-2.441406-2.441407-6.113282-3.171876-9.300782-1.851563-3.191406 1.320313-5.269531 4.433594-5.269531 7.882813 0 3.453124 2.078125 6.5625 5.269531 7.886718 3.1875 1.320313 6.859376.589844 9.300782-1.851562 3.328125-3.332032 3.328125-8.734375 0-12.066406zm0 0"/><path d="m345.332031 95.109375c0 4.714844-3.820312 8.535156-8.53125 8.535156-4.714843 0-8.535156-3.820312-8.535156-8.535156 0-4.710937 3.820313-8.53125 8.535156-8.53125 4.710938 0 8.53125 3.820313 8.53125 8.53125zm0 0"/><path d="m445.753906 27.78125c-.078125-.078125-.171875-.09375-.253906-.171875-28.238281-27.6210938-75.785156-28.902344-123.855469-8.113281-31.679687-12.890625-65.578125-19.4609378-99.78125-19.34375-108.507812 0-198.296875 63.539062-211.574219 145.40625-2.792968-.660156-5.734374.15625-7.789062 2.160156-3.332031 3.332031-3.332031 8.734375 0 12.066406l6.058594 6.058594v.707031.714844l-6.058594 6.050781c-2.4414062 2.441406-3.171875 6.113282-1.851562 9.300782 1.320312 3.1875 4.433593 5.265624 7.882812 5.265624.597656-.050781 1.1875-.164062 1.757812-.339843 13.277344 81.878906 103.066407 145.40625 211.574219 145.40625 22.609375.042969 45.128907-2.804688 67.015625-8.480469 19.746094 7.308594 40.621094 11.113281 61.675782 11.238281 42.890624.105469 84.007812-17.109375 114.023437-47.742187 69.972656-69.925782 62.292969-179.039063-18.429687-259.789063zm-223.890625 288.101562c-100.308593 0-183.234375-57.566406-194.824219-131.558593l1.058594 1.058593c2.144532 2.21875 5.316406 3.109376 8.300782 2.328126 2.984374-.78125 5.3125-3.109376 6.09375-6.09375.78125-2.984376-.109376-6.15625-2.328126-8.300782l-6.765624-6.765625 6.765624-6.765625c3.234376-3.351562 3.1875-8.671875-.101562-11.964844-3.292969-3.289062-8.617188-3.335937-11.964844-.101562l-1.058594 1.066406c11.589844-73.992187 94.515626-131.566406 194.824219-131.566406 26.765625-.035156 53.359375 4.242188 78.765625 12.671875-19.503906 11.1875-37.417968 24.941406-53.265625 40.890625-66.5625 66.558594-85.667969 155.699219-42.617187 198.742188.09375.101562.214844.179687.316406.28125l.058594.09375c16.839844 16.988281 36.109375 31.382812 57.175781 42.71875-13.371094 2.160156-26.890625 3.253906-40.433594 3.265624zm230.648438-39.984374c-51.054688 51.054687-125.816407 55.660156-191.394531 16.390624 1.707031.078126 3.414062.207032 5.214843.207032 43.023438 0 94.71875-23.152344 137.183594-65.625 44.269531-44.269532 67.410156-98.480469 65.347656-142.503906 39.328125 65.613281 34.738281 140.441406-16.351562 191.53125zm-61.089844-61.089844c-59.886719 59.875-138.195313 79-174.601563 42.664062-36.367187-36.394531-17.246093-114.710937 42.667969-174.589844 39.320313-39.324218 86.589844-61.066406 124.714844-61.066406 18.4375-.820312 36.425781 5.832032 49.894531 18.449219 36.328125 36.316406 17.210938 114.652344-42.675781 174.542969zm0 0"/><path d="m159.433594 43.261719c-2.191406.734375-54.039063 18.320312-80.929688 54.167969-1.828125 2.441406-2.21875 5.667968-1.019531 8.472656 1.199219 2.804687 3.800781 4.753906 6.828125 5.121094 3.023438.363281 6.015625-.914063 7.847656-3.351563 23.652344-31.53125 72.191406-48.0625 72.675782-48.222656 4.476562-1.492188 6.898437-6.332031 5.40625-10.808594-1.492188-4.476563-6.328126-6.898437-10.808594-5.40625zm0 0"/><path d="m204.796875 42.816406c0 4.714844-3.820313 8.535156-8.53125 8.535156-4.714844 0-8.535156-3.820312-8.535156-8.535156 0-4.710937 3.820312-8.53125 8.535156-8.53125 4.710937 0 8.53125 3.820313 8.53125 8.53125zm0 0"/></svg>